<?xml version="1.0" encoding="UTF-8"?>
<!DOCTYPE svg PUBLIC "-//W3C//DTD SVG 1.1//EN" "http://www.w3.org/Graphics/SVG/1.1/DTD/svg11.dtd">
<!-- Creator: CorelDRAW 2021.5 -->
<svg xmlns="http://www.w3.org/2000/svg" xml:space="preserve" width="1432px" height="1253px" version="1.1" style="shape-rendering:geometricPrecision; text-rendering:geometricPrecision; image-rendering:optimizeQuality; fill-rule:evenodd; clip-rule:evenodd"
viewBox="0 0 1432 1253"
 xmlns:xlink="http://www.w3.org/1999/xlink"
 xmlns:xodm="http://www.corel.com/coreldraw/odm/2003">
 <defs>
  <style type="text/css">
   <![CDATA[
    .fil1 {fill:none}
    .fil0 {fill:#285C9B}
   ]]>
  </style>
   <clipPath id="id0">
    <path d="M716 27c331.37,0 600,268.63 600,600 0,331.37 -268.63,600 -600,600 -331.37,0 -600,-268.63 -600,-600 0,-331.37 268.63,-600 600,-600z"/>
   </clipPath>
    <clipPath id="id1">
     <path d="M716 100.38c305.88,0 553.85,247.97 553.85,553.85 0,305.88 -247.97,553.85 -553.85,553.85 -305.88,0 -553.85,-247.97 -553.85,-553.85 0,-305.88 247.97,-553.85 553.85,-553.85z"/>
    </clipPath>
    <clipPath id="id2">
     <path d="M716 27c331.37,0 600,268.63 600,600 0,331.37 -268.63,600 -600,600 -331.37,0 -600,-268.63 -600,-600 0,-331.37 268.63,-600 600,-600z"/>
    </clipPath>
 </defs>
 <g id="Layer_x0020_1">
  <metadata id="CorelCorpID_0Corel-Layer"/>
  <g>
  </g>
  <g style="clip-path:url(#id0)">
   <g id="_2303661672064">
    <path class="fil0" d="M716 100.38c305.87,0 553.85,247.99 553.85,553.85 0,305.87 -247.98,553.85 -553.85,553.85 -305.87,0 -553.85,-247.98 -553.85,-553.85 0,-305.86 247.98,-553.85 553.85,-553.85zm600 526.62c0,-331.36 -268.65,-600 -600,-600 -331.35,0 -600,268.64 -600,600 0,331.35 268.65,600 600,600 331.35,0 600,-268.65 600,-600z"/>
    <g>
    </g>
   </g>
   <g style="clip-path:url(#id1)">
    <g>
     <g>
      <path class="fil0" d="M617.93 489.4l-0.03 0c1.07,-0.62 1.79,-1.41 1.84,-2.43 1.14,-20.39 -13.31,-23.19 -28.5,-26.68 -8.79,-2.02 -18.18,-2.38 -27.9,-2.43 -6.15,-0.03 -9.75,2.74 -12.13,4.85 3.03,-1.21 5.36,-1.21 7.28,-1.21 2.29,21.78 23,38.13 53.93,29.64 1.99,-0.37 4.03,-0.91 5.45,-1.72l0.06 -0.02zm163.87 -83.55c6.82,13.42 24.56,22.18 32.1,23.67 -12.52,-5.07 -23.18,-14.01 -32.4,-30.91 6.63,10.5 10.68,15.51 19.51,19.68 -9.02,-7.1 -11.5,-11.42 -13.45,-17.1 3.86,6.18 14.81,14.36 28.08,21.09 0.75,4.35 1.48,8.68 2.28,12.93 -15.77,-5.79 -29.91,-15.32 -36.12,-29.36zm-113.5 -100.01c-1.52,-2.81 -2.73,-5.34 -3.69,-7.64 23.9,9.52 49.9,28.22 62.08,39.28 -8.94,-9.21 -34.14,-31.59 -63.4,-42.78 -0.73,-2.2 -1.18,-4.14 -1.37,-5.81 25.32,8.83 50.41,25.15 61.99,40.66 -11.68,-19.17 -37.76,-35.86 -61.89,-44.43 6.99,-5.74 57.46,9.23 59.12,33.98 2.57,-4.82 -2.35,-17.06 -11.68,-25.92 10.78,5.54 16.25,21.45 18.77,32.62 3.74,16.54 3.06,34.58 2.59,55.17 -0.42,18.23 23.2,43.08 38.16,52.95 15.3,10.1 33.9,16.2 53.32,19.74 1.24,3.96 2.69,7.76 4.46,11.34 9.3,18.86 26.42,40.01 46.65,21.45 -22.67,8.06 -32.24,-9.03 -35.69,-30.51 13.43,1.57 26.93,2.12 39.71,2.11 -14.43,-1.5 -27.91,-3.44 -40.29,-6.18 -0.36,-2.94 -0.62,-5.94 -0.8,-8.94 11.98,2.08 24.14,1.97 34.72,-1.8 -8.73,1.77 -21.54,1.61 -34.86,-0.92 -0.13,-3.21 -0.18,-6.41 -0.15,-9.54 6.14,1.92 12.28,3.28 18.06,3.8 -7.35,-1.59 -13.11,-3.36 -18.04,-5.28 0.03,-2.05 0.1,-4.06 0.18,-6.02 1.21,-27.24 -1.13,-9.06 17.45,-1.14 37.45,15.97 41.37,69.14 34.89,107.79 -0.83,2.88 -1.66,5.79 -2.51,8.73l-30.64 -2.69c-4.02,-0.36 -5.16,-0.58 -7.86,-1.53l-10.38 -3.62c-11.7,-4.08 -12.2,-7.19 -21.56,-12.2 -11.3,-6.05 -28.22,-12.16 -48.52,-19.41 -21.97,-7.84 -51.55,-14.57 -75.21,-13.95 -13.26,0.36 -25.44,2.9 -32.74,1.22 -6.45,-1.49 -16.61,-8.97 -27.68,-17.03 -14.22,-10.35 -30.02,-19.07 -46.68,-25.53 -14.53,-5.66 -29.75,-9.59 -45.12,-11.4 0,-0.02 0,-0.04 0,-0.06 0.18,-1.43 0.68,-2.71 2.04,-4.74 1.27,-1.91 3.25,-5.99 3.48,-6.46 0.48,-0.47 0.94,-0.97 1.37,-1.49 3.03,3.32 7.02,2.1 11.3,3.03 25.08,5.39 47.17,13.3 61.26,30.32 5.88,7.11 16.98,14.56 25.47,20.62 -4.06,-27.73 -15.77,-44.88 -38.2,-51.15 -15.98,-4.47 -35.17,-7.07 -57.81,-5.89 0.76,-1.51 1.25,-3.12 1.4,-4.82 4.5,-14.94 9.77,-31.09 11.65,-45.69 3.59,-7.99 10.36,-17.54 12.28,-24.27 4.27,-14.87 4.98,-20.35 18.34,-32.3 0.17,-0.15 0.33,-0.32 0.47,-0.49l-0.08 0.09c5.06,-4.99 12.5,-7.87 12.52,-3.4 0.19,1.11 0.22,2.02 0.13,2.8 -0.21,1.89 -1.11,3 -2.02,4.17 -5.35,6.96 -0.78,9.11 6.45,7.14 5.91,-1.6 9.1,-6.29 15.14,-7.34 10.27,-1.79 21.72,5.71 29.02,17.52 -3.92,-11.5 -22.54,-25.64 -34.73,-19.27 2.23,-1.35 4.4,-2.66 6.22,-3.25 8.25,-2.68 15.34,-3.34 22.75,-1.32 18.75,21.81 25.83,49.77 77.4,68.21 -34.89,-13.89 -53.76,-39.24 -62.52,-60.93 24.89,16.66 29.16,32.38 64.6,44.04 -35.8,-14.5 -40.94,-32.29 -63.96,-47.72 -0.86,-0.57 -1.74,-1.13 -2.62,-1.67 -0.72,-2.14 -1.35,-4.24 -1.88,-6.26 2.73,1.34 5.73,2.65 9.14,4.01zm214.41 247.43c-8.82,13.29 -10.29,25.58 -10.03,33.38 -1.84,4.7 -3.81,9.45 -5.81,14.14 -19.97,46.72 -48.16,48.9 -82.77,74.19 -26.93,19.69 -16.86,52.46 -41.24,75.21 -23.81,22.21 -67.83,26.56 -98.25,19.4 -3.66,-0.85 -18.01,-16.03 -33.96,-21.83 -22.66,-8.24 -29.82,5.06 -46.11,-11.2 -21.73,-21.7 -24.84,-64.3 -39.41,-101.6 -10.64,-27.27 -5.12,-51.61 -13.34,-72.18 -11.01,-27.52 5.46,-38.81 -3.82,-49.68 -1.55,5.6 0.05,11.16 -1.94,16.94 -3.29,9.55 -2.09,12.53 -2.09,23.14 0,3.27 1.63,13.07 3.26,16.33 1.63,3.27 2.45,13.07 2.45,18.78 0,5.72 0.82,14.7 2.45,17.97 1.63,3.26 0,9.8 1.63,14.7 1.63,4.89 4.08,13.06 6.54,19.59 2.45,6.54 4.08,14.7 6.53,24.5 2.45,9.8 4.08,18.78 6.53,26.13 2.45,7.35 4.08,13.88 6.53,19.59l9.8 22.87c2.45,5.71 7.35,12.25 7.35,12.25 0,0 0.1,12.87 0.18,24.08l-0.18 -0.4c-8.83,4.27 -11.59,12.67 -13.68,19.14 -4.37,3.88 -14.02,12.45 -18.98,16.78 -6.54,5.72 -22.86,21.23 -22.86,21.23 0,0 -17.15,3.27 -30.22,6.54 -13.06,3.26 -18.78,3.26 -31.84,6.53 -13.07,3.26 -21.23,6.53 -31.85,8.17 -10.61,1.63 -25.31,2.44 -36.74,5.71 -11.43,3.27 -24.5,8.16 -31.85,10.61 -7.35,2.45 -23.68,11.43 -31.03,14.7 -7.34,3.27 -24.49,14.7 -31.02,17.96 -6.54,3.27 -11.43,8.17 -15.52,8.99 -4.08,0.81 -13.88,0.81 -17.14,4.08 -3.27,3.27 -16.34,15.52 -18.79,22.05 -2.45,6.53 -4.08,10.61 -4.89,15.51 -0.82,4.9 -5.72,29.4 -6.54,38.38 -0.82,8.98 -2.45,17.15 -3.26,24.5 -0.82,7.34 -2.45,22.04 -1.64,26.12 0.82,4.09 2.45,5.72 1.64,8.98 -0.82,3.27 -5.72,13.07 -8.99,19.6 -3.26,6.54 -4.89,13.07 -6.53,17.97 -1.63,4.9 -6.53,10.61 -8.16,15.51 -1.64,4.9 -0.82,6.53 -3.27,10.62 -2.45,4.08 -6.53,14.7 -8.98,20.41 -2.45,5.72 -1.64,12.25 -3.27,15.51 -1.63,3.27 -6.53,5.72 -6.53,10.62 0,4.9 0,6.53 -2.45,8.98 -2.45,2.45 0,8.17 -1.63,11.43 -1.64,3.27 -4.9,7.35 -5.72,13.88 -0.81,6.54 -1.63,8.99 -3.26,14.7 -1.64,5.72 -5.72,12.25 -8.17,16.33 -2.45,4.09 -2.45,5.72 -6.53,17.15 -4.09,11.43 -8.17,19.59 -10.62,30.21 -2.45,10.62 -5.71,17.97 -6.53,26.13 -0.82,8.17 -1.63,13.88 -4.08,18.78 -2.45,4.9 -4.08,10.62 -4.08,15.52 0,4.89 0.81,12.24 0,17.96 -0.82,5.72 -5.72,11.43 -6.54,18.78 -0.81,7.35 -4.08,8.98 -4.9,16.33 -0.81,7.35 -1.63,17.15 -2.45,22.86 -0.81,5.72 -3.26,15.52 -4.89,22.05 -1.64,6.53 -2.45,17.15 -3.27,23.68 -0.82,6.53 -4.9,15.52 -5.72,22.05 -0.81,6.53 -7.35,17.96 -7.35,24.49 0,6.54 0.82,15.52 0,22.87 -0.81,7.35 -2.45,17.14 -0.81,25.31 1.63,8.17 4.08,18.78 4.9,27.76 0.39,4.29 -0.34,8.59 -1.03,12.88l12.28 0c0.54,-3.46 0.99,-6.88 0.98,-10.41 0,-1.19 -0.05,-2.38 -0.16,-3.56 -0.88,-9.78 -3.16,-19.44 -5.08,-29.05 -1.27,-6.34 0.27,-15.2 0.98,-21.59 0.78,-7.02 0.27,-13.83 0.11,-20.77 29.59,-14.1 67.12,-31.06 84.93,-31.06 26.68,0 42.45,2.42 58.22,15.76 -3.91,-17.6 -52.63,-26.85 -88.54,-64.28 -12.79,-13.33 -16.11,-32.91 -26.14,-53.98 0.22,-2.03 1.34,-4.38 2.2,-6.21 1.87,-4.02 3.64,-7.73 4.28,-12.19 0.97,-6.79 0.12,-12.98 0.12,-19.68 0,-3.23 1.37,-7.21 2.81,-10.09 3.59,-7.19 4.51,-15.12 5.3,-23l0.27 -2.01c1.22,-7.34 4.3,-15.17 6.01,-22.6 2.27,-9.83 6.83,-19.37 10.22,-28.86 15.55,100.99 31.31,141.01 79.83,164.06 -43.66,-24.26 -63.07,-123.72 -68.98,-188.37 1.66,-3.19 3.11,-6.48 4.09,-9.92 1.66,-5.81 2.87,-10.44 3.64,-16.52 0.46,-3.69 2.9,-6.72 4.53,-9.96 2.28,-4.57 1.75,-7.15 1.71,-11.01 2.94,-4.01 3.55,-8.02 3.64,-13.25 1.76,-2.22 3.59,-3.43 5.26,-6.77 1.77,-3.53 2.11,-7.1 2.53,-10.92 0.18,-1.6 0.4,-3.76 1.04,-5.24 2.43,-5.69 5.17,-13.84 8.23,-18.96 1.58,-2.63 2.65,-5.24 3.3,-8.23 0.36,-1.63 0.54,-3.2 1.07,-4.78 0.52,-1.54 2.05,-3.84 2.91,-5.24 2.02,-3.29 4.03,-6.59 5.26,-10.27 1.85,-5.56 3.23,-11.1 5.87,-16.39 3.06,-6.11 8.3,-15.66 9.9,-22.08 0.67,-2.66 0.77,-5.33 0.28,-8.03 -0.41,-2.28 -1.37,-4.17 -1.79,-6.27 -0.28,-2.72 0.36,-8.12 0.64,-11.25 0.34,-3.72 0.75,-7.44 1.16,-11.16 0.92,-8.27 2.53,-16.39 3.29,-24.73 1.12,-12.25 4.38,-25.25 6.42,-37.49 0.73,-4.41 2.72,-9.07 4.29,-13.24 1.75,-3.91 10.88,-12.68 15.09,-16.83 2.9,-0.9 8.99,-1.1 11.86,-1.67 7.42,-1.48 12.14,-6.82 18.56,-10.03 5.58,-2.78 11.24,-6.51 16.59,-9.77 4.28,-2.61 9.39,-5.93 13.94,-7.96 -26.1,37.22 -35.81,88.17 -40.66,120.91 -13.75,92.85 -25.61,184.64 -31.47,278.84 -9.99,-33.42 -19.39,-106.83 -25.54,-159.97 -0.93,37.81 -0.08,144.91 23.62,195.79 -0.62,13.78 -1.1,27.61 -1.43,41.52l-37.96 -16.55 37.63 33.57c-0.17,11.58 -0.24,23.21 -0.19,34.9 0.02,4.73 0.06,9.66 0.11,14.74l0 0c-57.61,-11.53 -89.71,-37.11 -89.71,-86.84 -17.73,53.19 43.32,95.77 89.98,106.24 0.33,19.63 0.87,40.49 1.63,60.35 -6.88,2.56 -25.76,9.29 -34.6,9.29 -10.91,0 -55.79,13.34 -48.51,16.98 6.32,3.16 26.25,-3.98 52.15,-2.43 9.93,0.59 22.93,9.65 32.58,11.05 0.82,14.46 1.78,27.35 2.88,37.47l33.44 0c2.88,-8.53 -12.25,-121.29 -10.03,-234.78 1.85,-94.16 9.52,-246.59 21.03,-337.95 5.13,-40.75 13.58,-88.17 25.05,-123.13 5.29,-2.35 10.53,-5.14 15.72,-7.74 4.33,-2.17 9.65,-5.01 14.22,-6.53 10.46,-3.49 20.71,-7.42 31.34,-10.46 11.11,-3.17 23.81,-3.63 35.25,-5.39 11.24,-1.72 21.96,-5.63 32.95,-8.38 10.55,-2.64 21.25,-3.89 31.84,-6.54 0.67,-0.17 1.35,-0.33 2.02,-0.5l-24.48 17.26c0,0 -16.98,3.64 -32.75,21.83 -15.77,18.2 -37.6,36.39 -47.31,44.88 -9.7,8.49 -24.25,18.2 -28.5,21.23 -4.25,3.03 -6.67,5.46 -5.46,11.52 1.21,6.07 3.03,9.1 4.85,18.2 1.82,9.09 15.77,47.3 15.77,47.3l-40.03 36.39c0,0 1.22,63.07 1.22,83.7 0,20.62 6.06,127.36 8.49,156.47 5.8,69.7 18.1,140.47 24.26,221.97 1.5,19.94 2.8,40.29 4.02,60.65l25.3 0c3.99,-60.67 9.74,-150.83 13.13,-177.09 4.21,-32.65 16.62,-89.1 21.83,-140.71 6.56,-64.98 6.25,-125.64 14.56,-158.9 3.63,-14.55 23.05,-99.46 26.68,-112.8 3.64,-13.34 16.99,-53.37 21.84,-64.29 4.85,-10.92 32.75,-65.5 32.75,-65.5 -17.85,48.26 -29.23,89.35 -46.1,139.49 48.11,-22.85 49.73,-51.66 118.92,-76.39 0.99,2.27 2.28,3.82 4.08,4.28 1.09,0.28 3.25,-0.64 6.15,-2.42 11.61,24.6 18.75,40.87 31.57,58.16 6.41,8.64 15.56,17.97 24.87,27.9 9.09,9.7 16.13,11.43 19.41,5.45 8.56,-15.62 21.92,-35.26 26.68,-40.02l-27.9 55.79c0,0 -47.31,95.83 -69.14,138.28 -7.73,15.05 -20.19,43.05 -37.6,78.84 -24.68,50.73 -43.35,90.47 -63.42,143.83 -20.36,54.13 -73.64,146.07 -67.58,186.1 43.67,-64.29 82.31,-139.69 129.79,-204.99 18.22,-25.06 39.89,-49.01 55.8,-75.21 20.62,-33.96 118.87,-146.77 135.85,-167.38 12.25,-14.89 36.51,-36.72 49.06,-47.72 12.98,-11.37 6.07,-16.56 0.98,-34.27 -2.47,-8.71 -5.41,-16.68 -10.75,-28.29l0.08 0.18c0,0 33.4,-12.41 49.17,-18.48 15.77,-6.06 25.47,-12.13 31.54,-15.77 6.07,-3.64 9.71,-6.06 6.67,-16.98 -3.03,-10.92 -7.88,-44.88 -10.31,-58.22 -2.42,-13.34 -9.7,-43.67 -12.13,-53.37 -1.23,-5.03 -3.36,-12.57 -5.31,-19.61 1.83,1.18 3.79,2.85 5.12,4.19l1.64 1.63 2.11 0.92c11.81,5.15 24.54,10.62 35.82,16.7 14.98,8.06 29.26,16.09 44.79,23.21 5.77,2.64 11.54,5.13 17.45,7.42 12.63,4.9 25.13,9.6 37.67,14.8 11.84,4.91 23.78,9.83 35.44,15.14 5.81,2.65 11.47,5.41 16.98,8.63 9.54,5.56 20.19,11.93 28.88,18.69 6.82,5.31 13.26,12.39 19.47,18.76 -18.58,15.91 -32.9,69.56 -44.77,93.3 -4.85,9.7 -20.62,57.01 -24.26,71.56 -3.64,14.56 -29.11,117.66 -31.54,129.79 -8.58,42.91 -24.11,84.45 -22.63,128.24 0.38,11.23 0.96,21 -0.41,25.81 -2.43,8.49 -14.56,21.83 1.21,26.68 15.77,4.85 26.68,16.98 29.11,26.68 2.43,9.71 3.64,21.84 13.34,30.33 9.71,8.49 31.54,9.7 32.75,16.98 1.22,7.28 2.43,18.2 -12.13,16.98 -14.55,-1.21 -20.62,1.22 -24.25,8.49 -3.64,7.28 -23.99,25.48 -30.33,30.33 -1.48,1.13 -3.53,2.86 -5.8,4.85l-21.83 0c0.12,-1.99 0.74,-3.72 2.16,-4.85 6.06,-4.85 29.11,-25.48 30.32,-29.11 1.22,-3.64 0,-14.56 -3.64,-19.41 -3.64,-4.85 -13.34,-23.05 -15.77,-29.11 -2.42,-6.07 -13.34,-31.54 -15.76,-35.18 -2.43,-3.64 -12.13,10.92 -15.77,14.56 -3.64,3.63 -25.47,7.27 -15.77,-7.28 5.12,-7.68 10.01,-15.11 9.99,-21.61 -0.02,-8.26 8.69,-12.84 16.69,-20.84 4.64,-4.64 11.63,-68.08 14.42,-81.25 15.31,-72.2 30.34,-140.65 52.3,-211.08 7.64,-24.51 54.58,-168.6 82.37,-164.86 0.76,0.78 1.52,1.54 2.27,2.3 4.59,4.58 9.36,5.06 15.39,5.65l0.34 0.03c2.82,2.41 5.92,5.74 8.78,8.98 -5.69,1.59 -17.55,17.14 -26.67,35.1 -15.69,30.88 -29.29,71.59 -32.75,80.05 -23.76,57.99 -42,118.17 -66.71,181.95 12.41,-27.59 42.66,-88.49 66.71,-139.5 18.25,-38.69 31.85,-72.03 37.6,-78.84 11.43,-13.51 28.24,-20.09 39.66,-23.82 2.22,3.92 4.73,7.65 7.27,10.92 1.9,2.44 -17.82,42.01 -2.05,61.42 -1.21,-18.19 9.67,-46.26 12.15,-42.54 2.29,3.43 4.94,6.72 7.55,9.92 2.6,3.18 6.72,7.58 8.92,10.99 0.52,1.25 0.96,3.2 1.38,4.48 0.86,2.64 1.88,5.19 3.04,7.67l0 -0.01c0,0 -13.63,45.88 -31.83,62.86 -18.19,16.98 -77.63,84.91 -77.63,84.91 0,0 -36.39,33.96 -41.24,43.67 -4.85,9.7 -40.02,38.81 -40.02,38.81 0,0 24.26,-4.85 35.17,-16.98 10.92,-12.13 23.05,-26.69 36.39,-38.82 13.34,-12.12 48.52,-52.15 63.07,-65.5 14.56,-13.34 26.69,-29.11 37.61,-31.53 3.93,-0.88 97.03,105.52 -90.98,232.89 192.87,-107.96 107.62,-252.35 109.17,-263.22 2.43,-16.98 12.76,-22.7 12.76,-22.7l-10 -19.56c3.3,6.05 12.17,22.42 13.08,27.98 0.82,6.58 2.52,13.77 3.99,20.3 1.37,6.1 2.79,12.4 4.59,18.38 1.5,5.01 2.48,10.82 3.39,15.98 1.03,5.86 2.05,11.9 2.7,17.8 1.43,12.83 2.05,26.2 3.01,39.1l1.04 13.6c1.84,22.96 10.5,45.69 15.8,67.98 3.61,15.14 7.51,30.19 11.52,45.23 3.3,12.38 7.3,25.7 9.58,38.24 2.31,12.67 3.27,26.4 4.79,39.26 1.19,10.14 2.01,20.45 2.83,30.64 0.83,10.47 1.98,21.98 1.98,32.45 0,9.12 1.63,19.83 2.91,28.9 1.3,9.1 2.69,18.76 4.75,27.71 0.42,1.82 0.54,4.19 0.47,6.89l12.09 0c0.1,-3.54 -0.09,-6.81 -0.74,-9.61 -2.45,-10.62 -7.35,-43.28 -7.35,-53.89 0,-10.62 -3.26,-50.63 -4.9,-64.51 -1.63,-13.88 -3.26,-31.03 -4.9,-40.01 -1.63,-8.98 -6.53,-26.95 -9.79,-39.2 -3.27,-12.24 -7.35,-27.76 -11.44,-44.91 -4.08,-17.14 -13.88,-45.72 -15.51,-66.13 -1.63,-20.42 -3.27,-45.73 -4.08,-53.08 -0.82,-7.35 -4.08,-27.76 -6.54,-35.93 -2.44,-8.16 -7.35,-30.21 -8.16,-36.74 -0.82,-6.53 -9.8,-23.68 -14.7,-32.66 -4.9,-8.99 -4.9,-13.07 -6.53,-16.33 -1.63,-3.27 -12.25,-14.7 -17.15,-22.05 -4.9,-7.35 -4.9,-12.25 -10.61,-19.6 -5.72,-7.35 -9.8,-15.51 -11.43,-21.23 -1.64,-5.71 -4.9,-6.53 -4.09,-13.88 0.82,-7.35 0,-19.6 -4.9,-25.31 -4.89,-5.72 -12.25,-13.88 -16.33,-17.15 -4.08,-3.26 -10.61,-0.82 -13.88,-4.08 -3.26,-3.27 -15.51,-16.33 -22.86,-22.05 -7.35,-5.71 -20.42,-13.88 -30.21,-19.6 -9.8,-5.71 -20.42,-10.61 -53.9,-24.49 -33.47,-13.88 -35.11,-13.07 -54.7,-22.05 -19.6,-8.98 -33.48,-17.15 -44.1,-22.86 -10.61,-5.72 -36.74,-17.15 -36.74,-17.15 0,0 -4.9,-4.9 -9.8,-7.35 -2.48,-1.24 -5.59,-2.9 -8.05,-4.23 -2.41,-1.31 -4.2,-2.3 -4.2,-2.3 0,0 -13.88,-17.15 -15.51,-22.05 -1.63,-4.9 -7.35,-17.15 -10.62,-22.04 -3.26,-4.9 -5.71,-8.99 -10.61,-12.25 -4.28,-2.85 -5.45,-3.21 -6.22,-5.43 -1.2,-6.25 -2.01,-12.15 -2.76,-18.25 0,0 7.35,-15.52 9.8,-20.42 2.44,-4.89 22.04,-35.93 25.31,-41.64 3.26,-5.71 9.79,-14.7 12.24,-17.96 2.45,-3.27 5.72,-4.08 6.54,-0.82 0.81,3.27 3.27,9.8 6.53,12.25 3.27,2.45 7.35,8.17 13.06,8.17 5.72,0 12.25,-0.82 18.79,-6.54 6.53,-5.71 11.43,-10.61 17.14,-17.15 5.72,-6.53 14.7,-17.14 19.6,-22.86 4.9,-5.71 14.7,-14.7 18.78,-18.78 4.08,-4.08 13.88,-15.51 17.15,-22.86 3.26,-7.35 4.9,-11.43 4.9,-21.23 0,-9.8 -1.64,-13.06 -4.09,-16.33 -2.45,-3.27 -8.98,-11.43 -13.88,-11.43 -4.88,0 -17.08,0.81 -17.14,0.81 0,0 4.89,-3.27 5.71,-7.35 0.82,-4.08 0.82,-6.53 4.08,-8.98 3.27,-2.45 3.27,-8.98 4.9,-11.43 1.51,-2.26 7.18,-9.37 11.25,-15.59 2.16,-2.41 4.4,-4.89 6.61,-7.35 3.52,-2.65 7.35,-4.82 9.91,-8.9 4.08,-6.54 13.06,-30.22 14.69,-40.01 16.49,-98.87 -46.52,-239.17 -149.47,-266.5l-0.09 -0.05c-4.51,-1.19 -9.09,-2.17 -13.74,-2.91 -20.63,-3.31 -34.3,4.9 -62.88,-0.82 -26.89,-5.38 -88.6,-21.88 -118.73,-4.03 -6.65,3.94 -9.72,7.21 -11.07,10.19l0 0 0 0c-2.69,5.98 1.51,10.79 -2.48,17.52 -12.34,20.81 -7.76,0.2 -22.05,35.93 -3.26,8.16 -15.51,22.04 -18.78,28.58 -3.26,6.53 -7.34,10.61 -9.79,22.04 -2.01,9.38 -9.52,25.89 -13.5,34.68 -2.31,4.78 -4.39,9.22 -5.8,12.79 -0.68,1.73 -1.5,4.53 -2.41,8.03 -1.76,5.31 -3.25,10.74 -3.61,14.72 -0.03,0.36 -0.07,0.74 -0.12,1.15 -4.82,22.05 -10.01,50.19 -10.01,50.19 0.24,-0.56 0.59,-1.39 1.03,-2.44 -0.19,2.59 -0.44,4.75 -2.33,6.63 -3.26,3.27 -2.45,4.9 -8.98,6.53 -5,1.25 -8.94,5.88 -10.51,7.99 -1.36,-0.04 -2.72,-0.07 -4.08,-0.07l-24.56 -0.09c-2.68,-0.01 -3.64,1.66 -3.64,3.03l0 6.67c0,3.69 7.79,4.69 7.58,9.13l-1.5 30.74c-1.16,24.05 7.18,33.59 21.82,42.01 23.27,13.38 38.18,16.58 63.68,20.62 13.79,2.18 24.11,1 37.14,-13.71l21.69 -24.5c4.46,-5.05 9.15,-11.06 19.24,-5.23 3.8,2.2 3.95,3.4 4.41,9.47l2.43 32.15c1.82,24.18 15.77,33.96 35.78,41.24 19.97,7.26 37.32,12.91 58.56,15.26 14.76,1.64 31.19,3.25 38.48,-11.62l15.76 -32.2c1.88,-3.84 4.98,-12.02 9.1,-10.86l15.16 4.24c2.56,0.72 4.61,0.69 9.36,0.82l31.51 0.88c-0.11,1.27 -0.27,2.59 -0.48,3.95zm-261.49 -254.06c3.15,-3.58 7.28,-5.64 12.09,-6.5l0.06 0.04c4.01,2.75 7.47,5.73 10.58,8.86 -5.52,-0.88 -11.54,-0.72 -18.14,0.92 -7.44,1.85 -6.01,-0.14 -4.59,-3.32zm187.83 144.19c3.7,1.49 7.54,2.85 11.52,4.1 -0.76,-3.01 -1.44,-6.1 -2.06,-9.23 -16.74,-5.81 -31.1,-14.82 -37.29,-22.34 2.69,13.33 19.94,23.95 27.83,27.47zm-4.53 -35.68c-1.01,-7.41 -9.96,-40.32 -23.93,-36.72l0 0c14.17,-13.25 28.78,32.99 29.79,42.68 0.93,-12.89 -6.24,-29.46 -12.06,-42.78 9.88,13.61 13.63,30.52 16.63,47.41 -9.86,-5.82 -21.75,-17.54 -28.77,-27.95 -0.27,-4.33 0.05,-7.87 2.21,-5.85 4.61,4.33 10.93,10.79 16.13,23.21zm-19.52 -53.34c0.01,-0.37 0,-0.74 -0.01,-1.12 0.01,0.38 0.02,0.75 0.01,1.12zm-674.74 1051.15c4.75,-0.92 9.09,-1.64 13.38,3.3 4.92,5.65 8.81,21.16 20.02,35.17 0,0 -26.69,21.84 -35.18,26.69 -4.32,2.47 -9.58,6.51 -13.71,9.88 0.68,-2.15 1.23,-4.32 1.5,-6.46 0.35,-2.79 1.53,-6.18 2.39,-8.87 1.35,-4.28 2.76,-8.71 3.32,-13.17 0.89,-7.12 1.28,-15.36 3,-22.25 1.89,-7.54 4.05,-15.6 5.14,-23.27l0.14 -1.02zm933.42 148.85c0,0 40.17,-20.08 87.84,-25.11 13.66,-1.44 72.76,-1.52 83.18,0.85 37.7,8.58 -4.12,19.31 -14.55,21.84 -14.59,3.53 -33.06,8.72 -40.03,4.85 -10.91,-6.07 -41.2,-25.86 -116.44,-2.43zm-38.82 -133.42c66.36,-32.09 166.18,-89.38 166.18,-174.67 0,-13.34 -9.71,-33.96 -20.62,1.21 -23.25,74.9 -83.7,121.3 -145.56,173.46zm126.25 -419.81c-3.41,7.1 -10.71,16.18 -12.48,18.53 -10.29,13.69 -16.3,34.89 -14.31,33.75 6.81,-3.92 22.7,-11.94 34,-14.83 -0.7,-1.75 -1.3,-3.5 -1.8,-5.23 -0.35,-1.23 -1.35,-2.7 -1.94,-3.84 -2.48,-4.77 -3.12,-9.38 -2.53,-14.71 0.3,-2.73 0.24,-9.6 -0.94,-13.67zm-488.34 307.71c50.95,7.06 95.16,14.39 142.51,19.07 23.98,2.37 50.65,4.78 74.7,4.78 13.55,0 12.64,1.03 12.63,9.18 0,9.49 -3.59,25.05 -5.38,34.6 -1.6,8.59 -6.77,15.06 -38.55,14.2 -19.59,-0.53 -48.24,-2.48 -69.42,-5.2 -46.75,-6.02 -95.72,-12.04 -136.48,-24.58 -7.89,-2.42 -9.08,-8.9 -4.85,-23.65 1.97,-6.89 3.66,-14.17 4.85,-19.41 3.09,-13.62 8.62,-10.56 19.99,-8.99zm-65.39 -110.73c0.8,-20.85 2.7,-41.71 3.76,-62.55 1.07,-21.18 1.96,-45.75 -1.83,-66.64 -0.61,-3.37 0.19,-6.45 1.86,-9.32 0.58,-1 1.24,-1.96 1.91,-2.9 1.41,-1.97 2.92,-3.88 4.44,-5.77 2.1,-2.62 4.26,-5.17 6.4,-7.75 5.5,-6.62 11.18,-13.08 16.69,-19.69 2.82,-3.39 9.61,-12.13 13.16,-18.46 -2.25,-2.63 -4.44,-5.31 -6.49,-8.08 -11.81,-15.92 -20.09,-33.12 -28.38,-50.8 -0.87,-0.05 -1.75,-0.19 -2.63,-0.42 -1.6,-0.41 -3.06,-1.03 -4.39,-1.83 -12.31,4.81 -24.23,10.56 -35.3,17.83 -8.03,5.27 -15.16,11.13 -22.27,17.36 0.79,13.05 -0.41,26.54 1.27,39.39 1.63,12.59 0.91,19.25 -7.5,29.35 -5.46,6.55 -10.78,17.2 -14.64,24.83 -6.61,13.02 -12.72,26.35 -18.81,39.63 -3.65,7.95 -7.28,15.91 -10.96,23.85 -5.3,11.42 -9.8,23.2 -13.96,35.07 -1.54,4.42 -3.03,8.85 -4.56,13.27 -1.01,2.93 -2.09,6.22 -3.47,8.99 -1.96,3.92 -3.56,8.67 -5,12.81 -2.29,6.57 -4.41,13.22 -6.47,19.86 -3.85,12.42 -7.49,24.92 -11.01,37.44 -0.18,1.92 -0.37,3.83 -0.56,5.74 -1.02,10.1 -2.29,20.18 -3.7,30.24 -2.92,20.7 -6.5,41.29 -10.13,61.88 -2.86,16.21 -5.94,32.6 -8.04,48.92 -1.91,14.79 -2.94,30.11 -4.08,44.99 -1.73,22.64 -3.28,45.29 -4.8,67.94 -1.13,16.82 -2.23,45.78 -3.33,62.61l25.43 0c2.35,-31.98 23.21,-88.86 34.49,-113.61 11.49,-25.2 24.35,-50.88 34.09,-76.76 18.76,-49.91 40.57,-96.98 63.86,-144.86 8.49,-17.45 16.7,-35.01 24.95,-52.56zm-64.98 -331.5c-141.38,179.44 -106.17,360.21 -137.07,572.52 -16.91,-137.48 -24.71,-296.51 4.65,-433.84l-21.53 21.33c2.07,-2.07 35.34,-35.3 43.57,-42.35 8.49,-7.28 40.02,-49.73 49.73,-60.65 9.7,-10.92 60.65,-57.01 60.65,-57.01zm290.41 -43.5c-0.43,0.85 -0.86,1.68 -1.29,2.5 0.43,-0.82 0.86,-1.65 1.29,-2.5zm-5.61 10.21c-0.43,0.72 -0.86,1.44 -1.29,2.15 0.43,-0.71 0.86,-1.43 1.29,-2.15zm-1.41 2.33c-0.85,1.4 -1.71,2.75 -2.57,4.07l-0.15 0.24 -0.18 0.27 -0.33 0.51 -0.18 0.27 -0.15 0.23 -0.33 0.5 -0.21 0.32 -0.12 0.17 -0.33 0.49 -0.25 0.37 -0.41 0.6 -0.28 0.41 -0.05 0.08 -0.63 0.9 -0.01 0.02 -0.02 0.03 -0.33 0.47 -0.33 0.47 -0.01 0.02 -0.32 0.45 -0.33 0.47 -0.04 0.06 -0.29 0.4 -0.32 0.46 -0.08 0.11 -0.25 0.35 -0.33 0.46 -0.11 0.14 -0.22 0.31 -0.33 0.45 -0.14 0.19 -0.19 0.26 -0.32 0.45 -0.18 0.23 -0.15 0.22 -0.53 0.72 -0.13 0.16 -0.32 0.44 -0.24 0.32 -0.09 0.13 -0.33 0.43 -0.26 0.36 -0.06 0.08 -0.33 0.44 -0.29 0.39 -0.03 0.04 -0.33 0.44c-7.61,10.14 -15.02,19.48 -21.93,32.79 -6.12,11.76 -12.02,24.28 -19.41,35.78 -6.54,10.17 -14.6,19.36 -20.01,29.11 -9.4,16.94 -21.31,28.59 -23.05,30.33 15.77,57.01 -106.92,291.45 -185.58,414.83 0,0 71.56,-103.1 83.69,-117.66 12.13,-14.55 64.29,-80.05 87.34,-103.1 23.04,-23.05 94.61,-94.61 100.67,-99.46 6.07,-4.85 12.13,-12.13 8.49,-20.62 -12.39,-28.92 -32.73,-107.48 -27.9,-140.71 4.52,-31.09 17.69,-61.29 17.69,-61.29 -19.99,64.09 -5.51,104.76 7.79,166.82l0.05 0.11 0.05 0.1 0.05 0.1 0.05 0.11 0.05 0.1 0.05 0.11 0.03 0.08 0.02 0.02 0.05 0.11 0.04 0.1 0.05 0.1 0.05 0.1 0.05 0.11 0.05 0.1 0.02 0.05 0.03 0.05 0.05 0.11 0.05 0.1 0.04 0.1 0.05 0.1 0.05 0.1 0.05 0.1 0.01 0.03 0.04 0.08 0.05 0.1 0.04 0.1 0.05 0.1 0.05 0.1 0.05 0.1 0.04 0.1 0.05 0.1 0.05 0.1 0.04 0.1 0.05 0.1 0.05 0.1 0.04 0.1 0.04 0.07 0.01 0.03 0.05 0.09 0.04 0.1 0.05 0.1 0.04 0.1 0.05 0.1 0.05 0.1 0.02 0.04 0.02 0.05 0.05 0.1 0.04 0.1 0.05 0.09 0.04 0.1 0.05 0.1 0.04 0.09 0.02 0.03 0.03 0.07 0.05 0.1 0.04 0.09 0.04 0.1 0.05 0.1 0.04 0.09 0.05 0.1 0 0 0.04 0.09 0.05 0.1 0.04 0.09 0.04 0.1 0.05 0.09 0.04 0.1 0.03 0.07 0.01 0.02 0.05 0.1 2.72 -192.39zm0 0c-0.85,1.4 -1.71,2.76 -2.57,4.07l2.57 -4.07zm-232.31 -80.26c0.37,14.99 1.56,36.27 4.71,46.93 7.05,23.85 18.28,35.95 20.62,59.44 0.61,6.07 0.61,19.74 1.22,32.04 8.33,1.95 20.45,5.57 25.16,10.88 10.81,-9.18 25.65,-22.38 45.19,-36.86 41.48,-30.72 94.13,-67.89 100.67,-72.77 15.49,-11.55 18.68,-26.37 22.53,-39.61 -34.53,17.82 -59.44,27.85 -96.41,31.12 -21.5,1.91 -39.5,1.83 -60.75,-2.43 -13.45,-2.7 -28.52,-6.8 -38.82,-10.92 -12.68,-5.06 -18.53,-10.26 -24.12,-17.82zm355.9 -136.55c1.14,-2.92 1.62,-5.31 1.66,-7.37 0.15,-3.58 -0.8,-7.11 -3.51,-10.31 -3.11,-5.69 -5.75,-12.4 4.48,-30.81 0.08,-0.14 3,-5.8 6.43,-8.8 1.31,-1.14 2.33,-2.43 4.25,-2.43 6.06,0 16.98,-2.42 23,0 1.79,1.65 2.4,3.7 0.68,5.4 -8.78,-2.4 -15.76,8.55 -13.37,19.47 6.97,31.82 -21.17,41.73 -22.03,57.83 -8.83,10.06 -18.21,20.61 -26.78,30.36 -5.75,6.55 -13.83,10.06 -20.94,10.06 -3.2,0 -7.03,-2.63 -9.7,-4.85 -3.11,-2.6 -5.58,-6.36 -6.67,-9.1 -2.32,-5.82 -5.17,-10.07 -7.52,-8.83 0.15,-0.08 0.3,-0.14 0.46,-0.17l-1.73 -2.47c14.74,-12.11 19.47,-14.21 22,-13.35 1.02,1 1.97,1.8 2.89,2.43 1.49,1.43 3.65,2.71 9.01,1.55l0.69 -0.16 0.01 0 0 0c0.29,-0.07 0.58,-0.14 0.88,-0.22 5.35,-1.46 6.96,-9.76 14.55,-11.53 7.05,-1.64 17.33,-7.74 20.62,-15.16 0.13,-0.28 0.25,-0.57 0.37,-0.86l0.11 -0.29 0.16 -0.38 0 -0.01zm0.57 19.73c0,0 -8.49,8.5 -14.55,8.5 -6.07,0 -6.68,-0.61 -10.31,2.42 -2.05,1.71 -2.25,6.27 0,7.28 1.1,0.49 2.78,1.01 5.16,-1.82 1.48,-1.76 2.71,-2.43 6.36,-2.43 1.82,0 13.34,-13.95 13.34,-13.95zm-394.12 -207.24l0.87 0.03 -0.87 -0.03 0 0zm-2.99 10.43l0.53 8.4c0,0 -3.16,5.01 -4.03,12.41 -0.88,7.4 1.55,13.47 2.15,17.71 0.61,4.25 1.23,5.23 -1.85,11.24 -3.07,6 -10.02,14.5 -10.07,14.56 -5.84,-6.85 -5.68,-13.67 -6.37,-28.84l1.14 -15.41c0.72,-9.67 1.34,-15.9 4.84,-18.5 2.75,-2 6.54,-0.54 12.62,-1.56l0 0c0.39,-0.01 0.74,-0.01 1.04,-0.01zm-13.27 64.32c0.07,-0.05 6.34,-4.56 11.32,-10.64 6.16,-7.53 4.38,-15.26 3.09,-22.85l0 0c2.37,-11.72 13.23,-14.03 10.25,-24.45 -2.42,-8.49 2.35,-10.25 2.35,-10.25 12.26,1.08 29.33,7.04 46.17,13.89 9.46,3.84 29.32,11.61 40.63,21.22 7.53,6.4 10.65,12.78 6.67,22.44 -2.01,4.89 -9.22,19.13 -16.98,30.33 -8.51,12.29 -15.65,13.66 -27.38,12.13 -23.41,-3.06 -43.67,-8.02 -63.39,-21.36 -6,-4.06 -10.02,-7.26 -12.73,-10.46zm298.18 16.66c-12.76,-6.12 -27.74,-12.67 -43.4,-18.12 -16.05,-5.59 -34.41,-10.44 -52.4,-12.03 -7.9,-0.69 -15.73,-0.76 -23.25,0.01 -3.21,0.33 -6.14,1.73 -8.74,3.49 -2.32,1.58 -2.81,4.79 -0.78,8.45 9.59,17.26 9.34,23.61 5.46,43.06 -2.6,12.98 1.55,19.38 13.34,25.47 16.05,8.3 43.22,15.71 61.27,18.42 19.29,2.89 31.27,1.85 38.02,-9.16 8.67,-14.11 10.21,-20.04 15.34,-36.55 3.53,-11.4 0.9,-20.29 -4.86,-23.04zm-265.03 103.7c4.8,4.75 9.01,11.1 11.52,13.95 5.06,5.74 11.77,4.71 18.81,5.46 2.09,0.23 10.48,2.32 16.59,4.03 9.69,2.71 10.83,5.27 14.34,7.49 5.41,3.45 8.49,5.46 18.8,4.25 9.91,-1.16 13.35,1.39 22.44,5.46 18.4,8.24 36.75,20.57 70.73,13.84 -5.84,19.52 -34.36,19.34 -44.65,28.01 -23.05,19.4 -75.03,37.07 -97.04,-15.77 -5.33,-12.8 -11.6,-27.5 -18.8,-39.42 -6.58,-10.89 -12.25,-20.63 -12.74,-27.3zm19.41 30.33c13.69,9.13 16.3,14 29.11,16.98 7.52,1.75 15.45,7.54 19.41,8.49 4.24,1.02 11.17,-1.53 18.8,-0.11 15.13,2.8 19.98,7.99 27.29,9.81 7.93,1.99 20.62,2.43 40.03,-2.42 -25.97,11.59 -48.52,18.19 -82.48,16.98 -22.75,-0.81 -36.39,-19.41 -52.16,-49.73zm109.17 -20.62c9.69,1.21 26.68,-2.43 18.19,-33.96 16.98,40.02 -8.49,48.52 -17.59,49.12 -6.43,0.43 -8.65,-6.18 -20.01,-10.31 -13.34,-4.85 -18.2,3.64 -29.11,2.43 -6.94,-0.77 -12.69,-9.6 -18.2,-15.77 -11.69,-13.09 -29.71,1.47 -29.71,-14.56 0,-7.28 -27.3,-25.47 27.29,-42.45 -44.88,18.19 -29.12,33.96 -19.41,32.75 9.7,-1.21 14.56,-1.21 19.41,3.64 2,2 1.9,3.3 3.03,5.46 6.3,12.04 16.99,13.6 26.08,4.24 2.98,-3.07 4.41,-4.04 12.27,-1.33 2.23,0.78 4.28,1.81 5.69,2.88 8.43,6.33 13.91,16.84 22.07,17.86zm81.54 -122.76c0.12,0.68 0.18,1.37 0.18,2.09 0,6.61 -5.22,11.98 -11.65,11.98 -6.44,0 -11.65,-5.37 -11.65,-11.98 0,-2.3 0.62,-4.45 1.71,-6.27 -4.59,-0.32 -8.81,0.07 -12.45,1.8 7.19,17.87 32.68,26.8 66.69,18.12 -39.78,13.01 -59.46,2.29 -72.53,-17.31l-3.64 -5.46c0,0 8.64,-5.44 21.23,-6.06 19.89,-0.98 62.28,22.29 66.71,40.02 -3.14,-3.54 -7.32,-7.47 -11.77,-11.19 -7.58,-6.35 -20.12,-12.09 -32.83,-15.74zm80.99 5.1c0,-24.26 -44.88,-43.67 -86.12,-53.37 -15.62,-3.68 -50.94,0 -65.5,18.19 15.16,-2.42 25.04,-1.65 34.57,-0.6 15.78,1.73 21.34,-5.81 36.39,-3.03 23.05,4.24 73.38,18.19 80.66,38.81zm-239.95 -52.4c0.64,1.36 1,2.88 1,4.49 0,5.69 -4.49,10.31 -10.02,10.31 -5.53,0 -10.02,-4.62 -10.02,-10.31 0,-3 1.25,-5.7 3.24,-7.59 -7.01,-0.99 -14,-1.52 -19.59,-1.51 4.56,15.96 23.06,31.92 53.47,28.74 1.19,-8.49 -0.03,-13.01 -2.53,-16.61 -2.06,-2.98 -8.05,-5.53 -15.55,-7.52z"/>
     </g>
    </g>
   </g>
   <g style="clip-path:url(#id2)">
    <path class="fil1" d="M716 100.38c305.88,0 553.85,247.97 553.85,553.85 0,305.88 -247.97,553.85 -553.85,553.85 -305.88,0 -553.85,-247.97 -553.85,-553.85 0,-305.88 247.97,-553.85 553.85,-553.85z"/>
   </g>
  </g>
  <path class="fil1" d="M716 27c331.37,0 600,268.63 600,600 0,331.37 -268.63,600 -600,600 -331.37,0 -600,-268.63 -600,-600 0,-331.37 268.63,-600 600,-600z"/>
 </g>
</svg>
